<svg xmlns="http://www.w3.org/2000/svg" id="mainsvg" width="896.2926757812501" height="963.0328125000001" viewBox="-123.83203125 -10 814.8115234375 875.484375"><defs><marker id="arrow" viewBox="0 0 10 10" refX="10" refY="5" markerWidth="5" markerHeight="5" orient="auto-start-reverse" fill="black"><path d="M 0 0 L 10 5 L 0 10 z"/></marker><filter id="shadowOLD" x="-50%" y="-50%" width="250%" height="250%"><feDropShadow flood-color="black" flood-opacity="0.3" dx="1" dy="1" stdDeviation="2"> </feDropShadow></filter><filter id="shadow-path" filterUnits="userSpaceOnUse" x="-123.83203125" y="-10" width="814.8115234375px" height="875.484375px"><feDropShadow flood-color="black" flood-opacity="0.1" dx="1" dy="1" stdDeviation="1"> </feDropShadow></filter><filter id="shadow" filterUnits="userSpaceOnUse" x="-123.83203125" y="-10" width="914.8115234375px" height="975.484375px"><feDropShadow flood-color="black" flood-opacity="0.1" dx="1" dy="1" stdDeviation="1"> </feDropShadow></filter></defs><rect x="-123.83203125" y="-10" width="814.8115234375" height="875.484375" fill="#fff"/><g transform="translate(0, 0)"><rect width="54.2265625" height="34" stroke="black" fill="white" stroke-width="2" transform="translate(0, 0)" rx="3"/><text fill="black" font-size="16" font-weight="normal" transform="translate(8, 8)" alignment-baseline="middle" font-family="Arial"><tspan x="0" dy="16" font-family="Arial" font-size="16" font-weight="normal">;trivia</tspan></text></g><g transform="translate(-85.83203125, 62)"><rect width="225.890625" height="34" stroke="black" fill="white" stroke-width="2" transform="translate(0, 0)" rx="3"/><text fill="black" font-size="16" font-weight="normal" transform="translate(8, 8)" alignment-baseline="middle" font-family="Arial"><tspan x="0" dy="16" font-family="Arial" font-size="16" font-weight="normal">api request with corrent token</tspan></text></g><g transform="translate(-44.1328125, 124)"><path d="M 71.24609375,0 L 142.4921875 71.24609375 L 71.24609375 142.4921875 L 0 71.24609375 Z" fill="white" stroke="black" stroke-dasharray="none" stroke-width="2"/><g transform="translate(17, 54.24609375)"><rect width="108.4921875" height="34" stroke="black" fill="none" stroke-width="0" transform="translate(0, 0)" rx="2"/><text fill="black" font-size="16" font-weight="normal" transform="translate(8, 8)" alignment-baseline="middle" font-family="Arial"><tspan x="0" dy="16" font-family="Arial" font-size="16" font-weight="normal">token is valid</tspan></text></g></g><g transform="translate(203.29296875, 178.24609375)"><rect width="160.078125" height="34" stroke="black" fill="white" stroke-width="2" transform="translate(0, 0)" rx="3"/><text fill="black" font-size="16" font-weight="normal" transform="translate(8, 8)" alignment-baseline="middle" font-family="Arial"><tspan x="0" dy="16" font-family="Arial" font-size="16" font-weight="normal">trivia api data stored</tspan></text></g><g transform="translate(218.4140625, 318.4921875)"><rect width="129.8359375" height="34" stroke="black" fill="white" stroke-width="2" transform="translate(0, 0)" rx="3"/><text fill="black" font-size="16" font-weight="normal" transform="translate(8, 8)" alignment-baseline="middle" font-family="Arial"><tspan x="0" dy="16" font-family="Arial" font-size="16" font-weight="normal">get user answer</tspan></text></g><g transform="translate(157.8359375, 380.4921875)"><path d="M 125.49609375,0 L 250.9921875 125.49609375 L 125.49609375 250.9921875 L 0 125.49609375 Z" fill="white" stroke="black" stroke-dasharray="none" stroke-width="2"/><g transform="translate(17, 108.49609375)"><rect width="216.9921875" height="34" stroke="black" fill="none" stroke-width="0" transform="translate(0, 0)" rx="2"/><text fill="black" font-size="16" font-weight="normal" transform="translate(8, 8)" alignment-baseline="middle" font-family="Arial"><tspan x="0" dy="16" font-family="Arial" font-size="16" font-weight="normal">answer matches stored data</tspan></text></g></g><g transform="translate(455.5263671875, 488.98828125)"><rect width="197.453125" height="34" stroke="black" fill="white" stroke-width="2" transform="translate(0, 0)" rx="3"/><text fill="black" font-size="16" font-weight="normal" transform="translate(8, 8)" alignment-baseline="middle" font-family="Arial"><tspan x="0" dy="16" font-family="Arial" font-size="16" font-weight="normal">open data.txt for addition`</tspan></text></g><g transform="translate(487.5576171875, 683.484375)"><rect width="133.390625" height="34" stroke="black" fill="white" stroke-width="2" transform="translate(0, 0)" rx="3"/><text fill="black" font-size="16" font-weight="normal" transform="translate(8, 8)" alignment-baseline="middle" font-family="Arial"><tspan x="0" dy="16" font-family="Arial" font-size="16" font-weight="normal">increment points</tspan></text></g><g transform="translate(463.1005859375, 745.484375)"><rect width="182.3046875" height="34" stroke="black" fill="white" stroke-width="2" transform="translate(0, 0)" rx="3"/><text fill="black" font-size="16" font-weight="normal" transform="translate(8, 8)" alignment-baseline="middle" font-family="Arial"><tspan x="0" dy="16" font-family="Arial" font-size="16" font-weight="normal">send success message</tspan></text></g><g transform="translate(173.49609375, 683.484375)"><rect width="219.671875" height="34" stroke="black" fill="white" stroke-width="2" transform="translate(0, 0)" rx="3"/><text fill="black" font-size="16" font-weight="normal" transform="translate(8, 8)" alignment-baseline="middle" font-family="Arial"><tspan x="0" dy="16" font-family="Arial" font-size="16" font-weight="normal">open data.txt for subtraction`</tspan></text></g><g transform="translate(213.96484375, 745.484375)"><rect width="138.734375" height="34" stroke="black" fill="white" stroke-width="2" transform="translate(0, 0)" rx="3"/><text fill="black" font-size="16" font-weight="normal" transform="translate(8, 8)" alignment-baseline="middle" font-family="Arial"><tspan x="0" dy="16" font-family="Arial" font-size="16" font-weight="normal">decrement points</tspan></text></g><g transform="translate(210.8515625, 807.484375)"><rect width="144.9609375" height="34" stroke="black" fill="white" stroke-width="2" transform="translate(0, 0)" rx="3"/><text fill="black" font-size="16" font-weight="normal" transform="translate(8, 8)" alignment-baseline="middle" font-family="Arial"><tspan x="0" dy="16" font-family="Arial" font-size="16" font-weight="normal">send fail message</tspan></text></g><g transform="translate(-51.16015625, 318.4921875)"><rect width="156.546875" height="34" stroke="black" fill="white" stroke-width="2" transform="translate(0, 0)" rx="3"/><text fill="black" font-size="16" font-weight="normal" transform="translate(8, 8)" alignment-baseline="middle" font-family="Arial"><tspan x="0" dy="16" font-family="Arial" font-size="16" font-weight="normal">generate new token</tspan></text></g><g transform="translate(-75.609375, 488.98828125)"><rect width="205.4453125" height="34" stroke="black" fill="white" stroke-width="2" transform="translate(0, 0)" rx="3"/><text fill="black" font-size="16" font-weight="normal" transform="translate(8, 8)" alignment-baseline="middle" font-family="Arial"><tspan x="0" dy="16" font-family="Arial" font-size="16" font-weight="normal">api request with new token</tspan></text></g><g transform="translate(-9.21484375, 745.484375)"><rect width="195.1796875" height="34" stroke="black" fill="white" stroke-width="2" transform="translate(0, 0)" rx="3"/><text fill="black" font-size="16" font-weight="normal" transform="translate(8, 8)" alignment-baseline="middle" font-family="Arial"><tspan x="0" dy="16" font-family="Arial" font-size="16" font-weight="normal">open data.txt for addition'</tspan></text></g><g transform="translate(-34.546875, 807.484375)"><rect width="217.3984375" height="34" stroke="black" fill="white" stroke-width="2" transform="translate(0, 0)" rx="3"/><text fill="black" font-size="16" font-weight="normal" transform="translate(8, 8)" alignment-baseline="middle" font-family="Arial"><tspan x="0" dy="16" font-family="Arial" font-size="16" font-weight="normal">open data.txt for subtraction'</tspan></text></g><path d="M 27.11328125,34 L 27.11328125 48 L 27.11328125 62" fill="none" stroke="black" stroke-dasharray="none" stroke-width="2" marker-end="url(#arrow)"/><path d="M 27.11328125,96 L 27.11328125 110 L 27.11328125 124" fill="none" stroke="black" stroke-dasharray="none" stroke-width="2" marker-end="url(#arrow)"/><path d="M 98.359375,195.24609375 L 112.359375 195.24609375 L 203.29296875 195.24609375" fill="none" stroke="black" stroke-dasharray="none" stroke-width="2" marker-end="url(#arrow)"/><path d="M 283.33203125,212.24609375 L 283.33203125 304.4921875 L 283.33203125 318.4921875" fill="none" stroke="black" stroke-dasharray="none" stroke-width="2" marker-end="url(#arrow)"/><path d="M 283.33203125,352.4921875 L 283.33203125 366.4921875 L 283.33203125 380.4921875" fill="none" stroke="black" stroke-dasharray="none" stroke-width="2" marker-end="url(#arrow)"/><path d="M 408.828125,505.98828125 L 422.828125 505.98828125 L 455.5263671875 505.98828125" fill="none" stroke="black" stroke-dasharray="none" stroke-width="2" marker-end="url(#arrow)"/><path d="M 554.2529296875,522.98828125 L 554.2529296875 669.484375 L 554.2529296875 683.484375" fill="none" stroke="black" stroke-dasharray="none" stroke-width="2" marker-end="url(#arrow)"/><path d="M 554.2529296875,717.484375 L 554.2529296875 731.484375 L 554.2529296875 745.484375" fill="none" stroke="black" stroke-dasharray="none" stroke-width="2" marker-end="url(#arrow)"/><path d="M 283.33203125,631.484375 L 283.33203125 669.484375 L 283.33203125 683.484375" fill="none" stroke="black" stroke-dasharray="none" stroke-width="2" marker-end="url(#arrow)"/><path d="M 283.33203125,717.484375 L 283.33203125 731.484375 L 283.33203125 745.484375" fill="none" stroke="black" stroke-dasharray="none" stroke-width="2" marker-end="url(#arrow)"/><path d="M 283.33203125,779.484375 L 283.33203125 793.484375 L 283.33203125 807.484375" fill="none" stroke="black" stroke-dasharray="none" stroke-width="2" marker-end="url(#arrow)"/><path d="M 27.11328125,266.4921875 L 27.11328125 304.4921875 L 27.11328125 318.4921875" fill="none" stroke="black" stroke-dasharray="none" stroke-width="2" marker-end="url(#arrow)"/><path d="M 27.11328125,352.4921875 L 27.11328125 366.4921875 L 27.11328125 488.98828125" fill="none" stroke="black" stroke-dasharray="none" stroke-width="2" marker-end="url(#arrow)"/><path d="M 27.11328125,522.98828125 L 27.11328125 669.484375 L 680.9794921875 669.484375 L 680.9794921875 164.24609375 L 283.33203125 164.24609375 L 283.33203125 178.24609375" fill="none" stroke="black" stroke-dasharray="none" stroke-width="2" marker-end="url(#arrow)"/><path d="M 283.33203125,212.24609375 L 283.33203125 304.4921875 L 283.33203125 318.4921875" fill="none" stroke="black" stroke-dasharray="none" stroke-width="2" marker-end="url(#arrow)"/><path d="M 283.33203125,352.4921875 L 283.33203125 366.4921875 L 283.33203125 380.4921875" fill="none" stroke="black" stroke-dasharray="none" stroke-width="2" marker-end="url(#arrow)"/><path d="M 283.33203125,631.484375 L 283.33203125 669.484375 L -113.83203125 669.484375 L -113.83203125 731.484375 L 88.375 731.484375 L 88.375 745.484375" fill="none" stroke="black" stroke-dasharray="none" stroke-width="2" marker-end="url(#arrow)"/><path d="M 88.375,779.484375 L 88.375 793.484375 L 680.9794921875 793.484375 L 680.9794921875 669.484375 L 554.2529296875 669.484375 L 554.2529296875 683.484375" fill="none" stroke="black" stroke-dasharray="none" stroke-width="2" marker-end="url(#arrow)"/><path d="M 554.2529296875,717.484375 L 554.2529296875 731.484375 L 554.2529296875 745.484375" fill="none" stroke="black" stroke-dasharray="none" stroke-width="2" marker-end="url(#arrow)"/><path d="M 283.33203125,631.484375 L 283.33203125 669.484375 L -113.83203125 669.484375 L -113.83203125 793.484375 L 74.15234375 793.484375 L 74.15234375 807.484375" fill="none" stroke="black" stroke-dasharray="none" stroke-width="2" marker-end="url(#arrow)"/><path d="M 74.15234375,841.484375 L 74.15234375 855.484375 L 680.9794921875 855.484375 L 680.9794921875 731.484375 L 283.33203125 731.484375 L 283.33203125 745.484375" fill="none" stroke="black" stroke-dasharray="none" stroke-width="2" marker-end="url(#arrow)"/><path d="M 283.33203125,779.484375 L 283.33203125 793.484375 L 283.33203125 807.484375" fill="none" stroke="black" stroke-dasharray="none" stroke-width="2" marker-end="url(#arrow)"/><g transform="translate(100.359375, 168.24609375)"><rect width="18.6982421875" height="24" stroke="none" fill="white" stroke-width="0" transform="translate(0, 0)" rx="2"/><text fill="black" font-size="14" font-weight="normal" transform="translate(4, 4)" alignment-baseline="middle" font-family="Arial"><tspan x="0" dy="14" font-family="Arial" font-size="14" font-weight="normal">✓</tspan></text></g><g transform="translate(29.11328125, 268.4921875)"><rect width="17.337890625" height="24" stroke="none" fill="white" stroke-width="0" transform="translate(0, 0)" rx="2"/><text fill="black" font-size="14" font-weight="normal" transform="translate(4, 4)" alignment-baseline="middle" font-family="Arial"><tspan x="0" dy="14" font-family="Arial" font-size="14" font-weight="normal">X</tspan></text></g><g transform="translate(410.828125, 478.98828125)"><rect width="18.6982421875" height="24" stroke="none" fill="white" stroke-width="0" transform="translate(0, 0)" rx="2"/><text fill="black" font-size="14" font-weight="normal" transform="translate(4, 4)" alignment-baseline="middle" font-family="Arial"><tspan x="0" dy="14" font-family="Arial" font-size="14" font-weight="normal">✓</tspan></text></g><g transform="translate(285.33203125, 633.484375)"><rect width="17.337890625" height="24" stroke="none" fill="white" stroke-width="0" transform="translate(0, 0)" rx="2"/><text fill="black" font-size="14" font-weight="normal" transform="translate(4, 4)" alignment-baseline="middle" font-family="Arial"><tspan x="0" dy="14" font-family="Arial" font-size="14" font-weight="normal">X</tspan></text></g></svg>